<svg xmlns="http://www.w3.org/2000/svg" version="1.1" xmlns:xlink="http://www.w3.org/1999/xlink" viewBox="0 0 9.8549560546875 10.86019458956345"><g transform="matrix(0.8571428571428571,0,0,0.8571428571428571,1.4078508649553574,7.790112400688383)"><rect width="12.5026872653447" height="12.5026872653447" x="-2.1451119432192254" y="-9.00469458956345" fill="#262626"></rect><g transform="matrix(1,0,0,1,0,0)" clip-path="url(#SvgjsClipPath39138)"><g clip-path="url(#SvgjsClipPath391334ff9a461-0f93-435b-bada-ccf8a5938351)"><path d=" M 1.9199326283118894 -2.671348823256216 C 1.4441650937914758 -3.585209452851695 1.5885739808620023 -4.698775825592469 2.2817053399811638 -5.461051967311396 L 2.2817053399811638 -6.857611880506527 C 0.37278693683270897 -5.711476799934241 -0.024878921893532913 -3.1331763797275585 1.428469848218369 -1.4705108602454207 C 1.5353580576905976 -1.7315094255684107 1.446883967750595 -1.5153233464508018 1.9199326283118894 -2.671348823256216 Z" fill="#e8a941" transform="matrix(1,0,0,1,0,0)" fill-rule="nonzero"></path></g><g clip-path="url(#SvgjsClipPath391334ff9a461-0f93-435b-bada-ccf8a5938351)"><path d=" M 6.2924947855171505 -2.6715286486422736 C 6.614813807485545 -1.8834618767864955 6.499797490563547 -2.1647807107339165 6.783633879915766 -1.4702950697821517 C 8.239967751436211 -3.1363413065221595 7.8360439692751935 -5.713526809335289 5.9306501436934465 -6.857144334502778 L 5.9306501436934465 -5.461051967311396 C 6.623824333537526 -4.698872177472284 6.7682669389028485 -3.5853389941560074 6.2924947855171505 -2.6715286486422736 Z" fill="#e8a941" transform="matrix(1,0,0,1,0,0)" fill-rule="nonzero"></path></g><g clip-path="url(#SvgjsClipPath391334ff9a461-0f93-435b-bada-ccf8a5938351)"><path d=" M 4.85011536395472 -1.4575274673721115 C 4.366137440356602 -1.3045501170961025 3.846757519476193 -1.3045501170961007 3.3627795958780644 -1.4575274673721115 L 2.3155484776370776 -0.7362478438978677 C 3.4217086599632536 -0.08942573393532971 4.7907187538657965 -0.08942573393532971 5.896878936191972 -0.7362478438978677 C 5.452494442168141 -1.0425264414299882 5.679721799989642 -0.8859704603288474 4.85011536395472 -1.4575274673721115 Z" fill="#e8a941" transform="matrix(1,0,0,1,0,0)" fill-rule="nonzero"></path></g><g clip-path="url(#SvgjsClipPath391334ff9a461-0f93-435b-bada-ccf8a5938351)"><path d=" M 7.0144217803812055 -0.251510533242878 C 7.0144217803812055 -0.2765062619047871 4.110925132029214 -7.351915901699746 4.106177741837312 -7.362201913782201 C 4.101969827803581 -7.351915901699746 1.2064574265925183 -0.2500000000000018 1.1961354494328513 -0.2500000000000018 C 1.2064933916697282 -0.2500000000000018 1.580710020054143 -0.5151345492023003 4.106465462455002 -2.2545855085307362 C 7.184464665436606 -0.13451613707425558 7.0144217803812055 -0.2617965453253337 7.0144217803812055 -0.251510533242878 Z" fill="#e8a941" transform="matrix(1,0,0,1,0,0)" fill-rule="nonzero"></path></g></g><g><path d=" M 0.09 1.005 L 0.09 0.9809999999999999 L 0.2115 0.9209999999999999 L 0.2115 0.09899999999999987 L 0.09 0.038999999999999924 L 0.09 0.014999999999999902 L 0.8280000000000001 0.014999999999999902 L 0.8280000000000001 0.2729999999999999 L 0.804 0.2729999999999999 L 0.7095 0.09749999999999992 L 0.369 0.09749999999999992 L 0.369 0.4544999999999999 L 0.603 0.4544999999999999 L 0.6795 0.3284999999999999 L 0.7035 0.3284999999999999 L 0.7035 0.6569999999999998 L 0.6795 0.6569999999999998 L 0.603 0.5339999999999998 L 0.369 0.5339999999999998 L 0.369 0.9209999999999999 L 0.507 0.9809999999999999 L 0.507 1.005 L 0.09 1.005 M 1.022971435546875 1.005 L 1.022971435546875 0.9809999999999999 L 1.145971435546875 0.9209999999999999 L 1.145971435546875 0.09899999999999987 L 1.022971435546875 0.038999999999999924 L 1.022971435546875 0.014999999999999902 L 1.423471435546875 0.014999999999999902 L 1.423471435546875 0.038999999999999924 L 1.301971435546875 0.09899999999999987 L 1.301971435546875 0.9209999999999999 L 1.423471435546875 0.9809999999999999 L 1.423471435546875 1.005 L 1.022971435546875 1.005 M 1.800000732421875 1.005 L 1.800000732421875 0.9809999999999999 L 1.951500732421875 0.9209999999999999 L 1.951500732421875 0.09749999999999992 L 1.714500732421875 0.09749999999999992 L 1.608000732421875 0.32399999999999984 L 1.584000732421875 0.32399999999999984 L 1.584000732421875 0.014999999999999902 L 2.475000732421875 0.014999999999999902 L 2.475000732421875 0.32399999999999984 L 2.4510007324218748 0.32399999999999984 L 2.3460007324218752 0.09749999999999992 L 2.107500732421875 0.09749999999999992 L 2.107500732421875 0.9209999999999999 L 2.260500732421875 0.9809999999999999 L 2.260500732421875 1.005 L 1.800000732421875 1.005 M 3.19498974609375 1.005 L 3.19498974609375 0.9809999999999999 L 3.34648974609375 0.9209999999999999 L 3.34648974609375 0.09749999999999992 L 3.10948974609375 0.09749999999999992 L 3.00298974609375 0.32399999999999984 L 2.97898974609375 0.32399999999999984 L 2.97898974609375 0.014999999999999902 L 3.86998974609375 0.014999999999999902 L 3.86998974609375 0.32399999999999984 L 3.8459897460937498 0.32399999999999984 L 3.7409897460937502 0.09749999999999992 L 3.50248974609375 0.09749999999999992 L 3.50248974609375 0.9209999999999999 L 3.65548974609375 0.9809999999999999 L 3.65548974609375 1.005 L 3.19498974609375 1.005 M 4.024478759765625 1.005 L 4.024478759765625 0.9809999999999999 L 4.145978759765625 0.9209999999999999 L 4.145978759765625 0.09899999999999987 L 4.024478759765625 0.038999999999999924 L 4.024478759765625 0.014999999999999902 L 4.441478759765625 0.014999999999999902 Q 4.598978759765625 0.014999999999999902 4.689728759765625 0.08024999999999982 Q 4.780478759765625 0.14549999999999985 4.780478759765625 0.25949999999999984 Q 4.780478759765625 0.3434999999999999 4.723478759765625 0.4079999999999999 Q 4.666478759765625 0.4724999999999999 4.573478759765625 0.5069999999999999 L 4.856978759765625 0.9254999999999999 L 4.957478759765625 0.9809999999999999 L 4.957478759765625 1.005 L 4.715978759765625 1.005 L 4.427978759765625 0.5489999999999999 L 4.303478759765625 0.5489999999999999 L 4.303478759765625 0.9194999999999999 L 4.415978759765625 0.9809999999999999 L 4.415978759765625 1.005 L 4.024478759765625 1.005 M 4.391978759765625 0.09749999999999992 L 4.303478759765625 0.09749999999999992 L 4.303478759765625 0.4694999999999999 L 4.400978759765625 0.4694999999999999 Q 4.493978759765625 0.4694999999999999 4.554728759765625 0.4162499999999999 Q 4.615478759765625 0.3629999999999999 4.615478759765625 0.28049999999999986 Q 4.615478759765625 0.19499999999999984 4.5562287597656255 0.14624999999999988 Q 4.496978759765625 0.09749999999999992 4.391978759765625 0.09749999999999992 M 4.986009521484375 1.005 L 4.986009521484375 0.9809999999999999 L 5.080509521484375 0.9314999999999999 L 5.466009521484375 0.00749999999999984 L 5.548509521484375 0.00749999999999984 L 5.929509521484375 0.9269999999999999 L 6.030009521484375 0.9809999999999999 L 6.030009521484375 1.005 L 5.634009521484375 1.005 L 5.634009521484375 0.9809999999999999 L 5.766009521484375 0.9284999999999999 L 5.655009521484375 0.6584999999999999 L 5.293509521484375 0.6584999999999999 L 5.184009521484375 0.9299999999999999 L 5.310009521484375 0.9809999999999999 L 5.310009521484375 1.005 L 4.986009521484375 1.005 M 5.3280095214843755 0.5759999999999998 L 5.622009521484375 0.5759999999999998 L 5.475009521484375 0.2144999999999999 L 5.3280095214843755 0.5759999999999998 M 6.631494140625 1.0199999999999998 Q 6.476994140625 1.0199999999999998 6.364494140625 0.9569999999999999 Q 6.251994140625 0.8939999999999999 6.190494140625 0.7844999999999999 Q 6.128994140625 0.6749999999999998 6.128994140625 0.5354999999999999 Q 6.128994140625 0.4274999999999999 6.170994140625 0.3314999999999999 Q 6.212994140625 0.23549999999999993 6.285744140625 0.16049999999999986 Q 6.358494140625 0.08549999999999991 6.452994140625 0.042749999999999844 Q 6.547494140625 -2.220446049250313e-16 6.6539941406250005 -2.220446049250313e-16 Q 6.730494140625 -2.220446049250313e-16 6.782994140625 0.009749999999999925 Q 6.835494140625 0.01949999999999985 6.876744140625 0.03524999999999989 Q 6.917994140625 0.05099999999999982 6.959994140625 0.07199999999999984 L 6.968994140625 0.33899999999999986 L 6.941994140625 0.33899999999999986 L 6.838494140625 0.1439999999999999 Q 6.787494140625 0.10799999999999987 6.746244140625 0.09149999999999991 Q 6.704994140625 0.07499999999999984 6.6539941406250005 0.07499999999999984 Q 6.550494140625 0.07499999999999984 6.467994140625 0.1289999999999999 Q 6.385494140625 0.18299999999999983 6.338244140625 0.2782499999999999 Q 6.290994140625 0.37349999999999983 6.290994140625 0.4979999999999999 Q 6.290994140625 0.6375 6.336744140625 0.73725 Q 6.382494140625 0.8369999999999999 6.460494140625 0.8894999999999998 Q 6.538494140625 0.942 6.632994140625 0.942 Q 6.710994140625 0.942 6.764244140625 0.9209999999999999 Q 6.817494140625 0.8999999999999999 6.859494140625 0.8714999999999999 L 6.959994140625 0.7034999999999999 L 6.985494140625 0.7034999999999999 L 6.967494140625 0.9449999999999998 Q 6.901494140625 0.9779999999999999 6.826494140625 0.9989999999999999 Q 6.751494140625 1.0199999999999998 6.631494140625 1.0199999999999998 M 7.204471435546875 1.005 L 7.204471435546875 0.9809999999999999 L 7.325971435546875 0.9209999999999999 L 7.325971435546875 0.09899999999999987 L 7.204471435546875 0.038999999999999924 L 7.204471435546875 0.014999999999999902 L 7.604971435546875 0.014999999999999902 L 7.604971435546875 0.038999999999999924 L 7.483471435546875 0.09899999999999987 L 7.483471435546875 0.9209999999999999 L 7.604971435546875 0.9809999999999999 L 7.604971435546875 1.005 L 7.204471435546875 1.005 M 7.483471435546875 0.49949999999999983 L 7.897471435546875 0.08999999999999986 L 7.790971435546875 0.038999999999999924 L 7.790971435546875 0.014999999999999902 L 8.114971435546876 0.014999999999999902 L 8.114971435546876 0.038999999999999924 L 8.020471435546876 0.0764999999999999 L 7.636471435546875 0.45299999999999985 L 8.098471435546875 0.9404999999999999 L 8.192971435546875 0.9809999999999999 L 8.192971435546875 1.005 L 7.948471435546875 1.005 L 7.483471435546875 0.49949999999999983" fill="#ffffff" fill-rule="nonzero"></path></g><g><path d=" M 2.4341107177734376 1.8554999999999995 L 2.4341107177734376 1.8434999999999995 L 2.4941107177734376 1.8134999999999994 L 2.4941107177734376 1.4024999999999994 L 2.4341107177734376 1.3724999999999996 L 2.4341107177734376 1.3604999999999996 L 2.6216107177734376 1.3604999999999996 L 2.6216107177734376 1.3724999999999996 L 2.5616107177734375 1.4024999999999994 L 2.5616107177734375 1.8134999999999994 L 2.6216107177734376 1.8434999999999995 L 2.6216107177734376 1.8554999999999995 L 2.4341107177734376 1.8554999999999995 M 2.5623607177734375 1.6019999999999994 L 2.7701107177734374 1.3979999999999995 L 2.7168607177734376 1.3724999999999996 L 2.7168607177734376 1.3604999999999996 L 2.8743607177734374 1.3604999999999996 L 2.8743607177734374 1.3724999999999996 L 2.8278607177734374 1.3904999999999994 L 2.6306107177734375 1.5839999999999994 L 2.8676107177734376 1.8239999999999994 L 2.9133607177734375 1.8434999999999995 L 2.9133607177734375 1.8554999999999995 L 2.8053607177734374 1.8554999999999995 L 2.5623607177734375 1.6019999999999994 M 2.9733563232421876 1.8554999999999995 L 2.9733563232421876 1.8434999999999995 L 3.0333563232421876 1.8134999999999994 L 3.0333563232421876 1.4024999999999994 L 2.9733563232421876 1.3724999999999996 L 2.9733563232421876 1.3604999999999996 L 3.3401063232421877 1.3604999999999996 L 3.3401063232421877 1.4894999999999996 L 3.3281063232421877 1.4894999999999996 L 3.2816063232421877 1.4017499999999994 L 3.1008563232421875 1.4017499999999994 L 3.1008563232421875 1.5794999999999995 L 3.2283563232421875 1.5794999999999995 L 3.2658563232421876 1.5172499999999995 L 3.2778563232421876 1.5172499999999995 L 3.2778563232421876 1.6814999999999996 L 3.2658563232421876 1.6814999999999996 L 3.2283563232421875 1.6207499999999995 L 3.1008563232421875 1.6207499999999995 L 3.1008563232421875 1.8142499999999995 L 3.3026063232421876 1.8142499999999995 L 3.3491063232421876 1.7189999999999994 L 3.3611063232421876 1.7189999999999994 L 3.3611063232421876 1.8554999999999995 L 2.9733563232421876 1.8554999999999995 M 3.4623394775390626 1.8554999999999995 L 3.4623394775390626 1.8434999999999995 L 3.5223394775390626 1.8134999999999994 L 3.5223394775390626 1.4024999999999994 L 3.4623394775390626 1.3724999999999996 L 3.4623394775390626 1.3604999999999996 L 3.8290894775390627 1.3604999999999996 L 3.8290894775390627 1.4894999999999996 L 3.8170894775390627 1.4894999999999996 L 3.7705894775390627 1.4017499999999994 L 3.5898394775390625 1.4017499999999994 L 3.5898394775390625 1.5794999999999995 L 3.7173394775390625 1.5794999999999995 L 3.7548394775390626 1.5172499999999995 L 3.7668394775390626 1.5172499999999995 L 3.7668394775390626 1.6814999999999996 L 3.7548394775390626 1.6814999999999996 L 3.7173394775390625 1.6207499999999995 L 3.5898394775390625 1.6207499999999995 L 3.5898394775390625 1.8142499999999995 L 3.7915894775390626 1.8142499999999995 L 3.8380894775390626 1.7189999999999994 L 3.8500894775390626 1.7189999999999994 L 3.8500894775390626 1.8554999999999995 L 3.4623394775390626 1.8554999999999995 M 3.9513226318359376 1.8554999999999995 L 3.9513226318359376 1.8434999999999995 L 4.011322631835937 1.8134999999999994 L 4.011322631835937 1.4024999999999994 L 3.9513226318359376 1.3724999999999996 L 3.9513226318359376 1.3604999999999996 L 4.146322631835938 1.3604999999999996 Q 4.234822631835938 1.3604999999999996 4.288447631835938 1.3927499999999995 Q 4.342072631835937 1.4249999999999994 4.342072631835937 1.4947499999999994 Q 4.342072631835937 1.5359999999999996 4.313947631835937 1.5678749999999995 Q 4.285822631835938 1.5997499999999993 4.237447631835938 1.6184999999999994 Q 4.189072631835938 1.6372499999999994 4.128322631835937 1.6372499999999994 L 4.078822631835937 1.6372499999999994 L 4.078822631835937 1.8134999999999994 L 4.146322631835938 1.8434999999999995 L 4.146322631835938 1.8554999999999995 L 3.9513226318359376 1.8554999999999995 M 4.078822631835937 1.4017499999999994 L 4.078822631835937 1.5959999999999994 L 4.142572631835938 1.5959999999999994 Q 4.201822631835937 1.5959999999999994 4.235572631835938 1.5693749999999995 Q 4.269322631835937 1.5427499999999994 4.269322631835937 1.5007499999999996 Q 4.269322631835937 1.4482499999999994 4.235197631835938 1.4249999999999994 Q 4.201072631835937 1.4017499999999994 4.1373226318359375 1.4017499999999994 L 4.078822631835937 1.4017499999999994 M 4.617322998046875 1.8554999999999995 L 4.617322998046875 1.8434999999999995 L 4.677322998046875 1.8134999999999994 L 4.677322998046875 1.4024999999999994 L 4.617322998046875 1.3724999999999996 L 4.617322998046875 1.3604999999999996 L 4.976572998046875 1.3604999999999996 L 4.976572998046875 1.4894999999999996 L 4.964572998046875 1.4894999999999996 L 4.918072998046875 1.4017499999999994 L 4.744822998046875 1.4017499999999994 L 4.744822998046875 1.5794999999999995 L 4.864822998046875 1.5794999999999995 L 4.902322998046875 1.5172499999999995 L 4.914322998046875 1.5172499999999995 L 4.914322998046875 1.6814999999999996 L 4.902322998046875 1.6814999999999996 L 4.864822998046875 1.6207499999999995 L 4.744822998046875 1.6207499999999995 L 4.744822998046875 1.8134999999999994 L 4.812322998046875 1.8434999999999995 L 4.812322998046875 1.8554999999999995 L 4.617322998046875 1.8554999999999995 M 5.081583251953125 1.8554999999999995 L 5.081583251953125 1.8434999999999995 L 5.141583251953125 1.8134999999999994 L 5.141583251953125 1.4024999999999994 L 5.081583251953125 1.3724999999999996 L 5.081583251953125 1.3604999999999996 L 5.269083251953125 1.3604999999999996 L 5.269083251953125 1.3724999999999996 L 5.209083251953125 1.4024999999999994 L 5.209083251953125 1.8134999999999994 L 5.269083251953125 1.8434999999999995 L 5.269083251953125 1.8554999999999995 L 5.081583251953125 1.8554999999999995 M 5.46559423828125 1.8554999999999995 L 5.46559423828125 1.8434999999999995 L 5.54059423828125 1.8134999999999994 L 5.54059423828125 1.4017499999999994 L 5.41834423828125 1.4017499999999994 L 5.36734423828125 1.5119999999999996 L 5.35534423828125 1.5119999999999996 L 5.35534423828125 1.3604999999999996 L 5.79334423828125 1.3604999999999996 L 5.79334423828125 1.5119999999999996 L 5.78134423828125 1.5119999999999996 L 5.73034423828125 1.4017499999999994 L 5.60809423828125 1.4017499999999994 L 5.60809423828125 1.8134999999999994 L 5.68309423828125 1.8434999999999995 L 5.68309423828125 1.8554999999999995 L 5.46559423828125 1.8554999999999995" fill="#fbe5c1" fill-rule="nonzero"></path></g></g><defs><clipPath id="SvgjsClipPath39138"><path d=" M 0.5508859991834631 -7.3622019137822 h 7.110691380539324 v 7.1122019137822 h -7.110691380539324 Z"></path></clipPath><clipPath id="SvgjsClipPath391334ff9a461-0f93-435b-bada-ccf8a5938351"><path d=" M 0.5508859991834638 -7.3622019137822 L 7.661577379722787 -7.3622019137822 L 7.661577379722787 -0.25 L 0.5508859991834644 -0.25 Z"></path></clipPath></defs></svg>